<svg xmlns="http://www.w3.org/2000/svg" width="265" height="305" fill="none" viewBox="0 0 265 305"><path fill="#80D8FF" d="M264.426 228.15L132.426 152.147V0L264.426 76.1442V228.15Z"/><path fill="#7ACFFF" d="M0.425995 228.15L132.426 152.147V1.52588e-05L0.425995 76.1443V228.15Z"/><path fill="url(#paint0_linear_2_696)" d="M132.426 228.15L264.426 152.147L132.426 76.1441L0.425991 152.147L132.426 228.15Z"/><path fill="#E4F0FE" d="M132.426 304.294L0.425991 228.15V76.1441L132.426 152.147V304.294Z" opacity=".3"/><path fill="url(#paint1_linear_2_696)" d="M0.425991 228.15L132.426 304.294V228.15L0.425991 152.147V228.15Z"/><path fill="#D0E6FF" d="M132.426 304.294L264.426 228.15V76.1441L132.426 152.147V304.294Z" opacity=".3"/><path fill="url(#paint2_linear_2_696)" d="M264.426 228.15L132.426 304.294V228.15L264.426 152.147V228.15Z"/><path fill="#fff" d="M132.426 152.147L264.426 76.1443L132.426 1.52588e-05L0.425995 76.1443L132.426 152.147Z" opacity=".3"/><defs><linearGradient id="paint0_linear_2_696" x1="5.407" x2="262.919" y1="180.504" y2="122.859" gradientUnits="userSpaceOnUse"><stop stop-color="#C132CE"/><stop offset="1" stop-color="#425AFA"/></linearGradient><linearGradient id="paint1_linear_2_696" x1="51.207" x2="89.091" y1="177.603" y2="303.801" gradientUnits="userSpaceOnUse"><stop stop-color="#425AFA"/><stop offset=".16" stop-color="#5A52F2"/><stop offset=".55" stop-color="#9241DE"/><stop offset=".84" stop-color="#B436D3"/><stop offset="1" stop-color="#C132CE"/></linearGradient><linearGradient id="paint2_linear_2_696" x1="155.784" x2="239.8" y1="280.42" y2="177.199" gradientUnits="userSpaceOnUse"><stop stop-color="#C132CE"/><stop offset=".1" stop-color="#AB39D6"/><stop offset=".28" stop-color="#8545E3"/><stop offset=".47" stop-color="#684EED"/><stop offset=".65" stop-color="#5355F4"/><stop offset=".83" stop-color="#4659F9"/><stop offset="1" stop-color="#425AFA"/></linearGradient></defs></svg>